# xmcd
#
# Track frame offsets:
#	150
#	17853
#	35194
#	48662
#	61572
#	77296
#	92686
#	107686
#	118785
#	132448
#	147643
#
# Disc length: 2153 seconds
#
# Revision: 0
# Processed by: cddbd v1.5.2PL0 Copyright (c) Steve Scherf et al.
# Submitted via: EasyCDDAExtractor 16.0.6.1
#
DISCID=9608670b
DTITLE=Τσανάκαλης Γιάννης - Ιντερνάσιοναλ Τσανάκαλης
DYEAR=1981
DGENRE=Ποικίλη
TTITLE0=Τσανάκαλης Γιάννης-χορωδία - Μπρους Λη [κινέζικο, μουσ. στ. Ιωάννης Βλ
TTITLE0=ασταρίδης]
TTITLE1=Τσανάκαλης Γιάννης - Περπεντούλε παρτάλε [ιταλ., μ. στ. Ιωάννης Βλαστα
TTITLE1=ρίδης]
TTITLE2=Τσανάκαλης Γιάννης - Γιάλα-γιάλα [τουρκικό, μουσ. στ. Ιωάννης Βλασταρί
TTITLE2=δης]
TTITLE3=Τσανάκαλης Γιάννης - Λα Σπανιόλα [ισπανικό, μουσ. στ. Ιωάννης Βλασταρί
TTITLE3=δης]
TTITLE4=Τσανάκαλης Γιάννης - Σκυλ παιδιά [ρωσσικό, μουσ. στ. Ιωάννης Βλασταρίδ
TTITLE4=ης]
TTITLE5=Τσανάκαλης Γιάννης - Ελ μαζούτ πουλ πουλ [αραβικό, μουσ. στ. Ιωάννης Β
TTITLE5=λασταρίδης]
TTITLE6=Τσανάκαλης Γιάννης - Πατσιαβούρ σιλευτέρ [γαλλικό, μουσ. στ. Ιωάννης Β
TTITLE6=λασταρίδης]
TTITLE7=Τσανάκαλης Γιάννης - Πρόσφυγας [μουσ. στ. Ιωάννης Βλασταρίδης]
TTITLE8=Τσανάκαλης Γιάννης - Απόγονος της γρίππης [εβραϊκό, μουσ. στ. Ιωάννης 
TTITLE8=Βλασταρίδης]
TTITLE9=Τσανάκαλης Γιάννης - Εδασισκή κάφτρα [ρωσσικό, μουσ. στ. Ιωάννης Βλαστ
TTITLE9=αρίδης]
TTITLE10=Τσανάκαλης Γιάννης - Ανέκδοτο σόκιν [Γιάννης Τσανάκαλης]
EXTD=
EXTT0=
EXTT1=
EXTT2=
EXTT3=
EXTT4=
EXTT5=
EXTT6=
EXTT7=
EXTT8=
EXTT9=
EXTT10=
PLAYORDER=
